<mxfile modified="2023-11-08T13:32:47.239Z" host="app.diagrams.net" agent="Mozilla/5.0 (Windows NT 10.0; Win64; x64) AppleWebKit/537.36 (KHTML, like Gecko) Chrome/119.0.0.0 Safari/537.36 Edg/119.0.0.0" etag="ZyPsBsTKGZoTnirznEo_" version="22.0.8" type="device">
  <diagram id="C2fSY1v2SiZeoUbDoYyL" name="Page-1">
    <mxGraphModel dx="1056" dy="638" grid="1" gridSize="10" guides="1" tooltips="1" connect="1" arrows="1" fold="1" page="1" pageScale="1" pageWidth="1169" pageHeight="827" math="0" shadow="0">
      <root>
        <mxCell id="0" />
        <mxCell id="1" parent="0" />
        <mxCell id="3ne1QswCM8ZiEu4GHsYG-31" value="CDH Databricks MLOPs Engagement Process" style="text;html=1;strokeColor=none;fillColor=none;align=center;verticalAlign=middle;whiteSpace=wrap;rounded=0;fontStyle=1;fontSize=20;fontColor=#4D4D4D;" parent="1" vertex="1">
          <mxGeometry x="189.5" y="50" width="790" height="30" as="geometry" />
        </mxCell>
        <mxCell id="3ne1QswCM8ZiEu4GHsYG-32" value="" style="line;strokeWidth=2;html=1;fontSize=20;fontColor=#4D4D4D;" parent="1" vertex="1">
          <mxGeometry x="103.5" y="80" width="960" height="10" as="geometry" />
        </mxCell>
        <mxCell id="8PE_kOPAnqpTPC93pDLh-12" value="" style="shape=image;verticalLabelPosition=bottom;labelBackgroundColor=default;verticalAlign=top;aspect=fixed;imageAspect=0;image=data:image/svg+xml,PHN2ZyB4bWxucz0iaHR0cDovL3d3dy53My5vcmcvMjAwMC9zdmciIGNsYXNzPSIiIGFyaWEtaGlkZGVuPSJ0cnVlIiB2aWV3Qm94PSIwIDAgMTYgMTYiIGZpbGw9Im5vbmUiIGhlaWdodD0iMWVtIiB3aWR0aD0iMWVtIj48cGF0aCBjbGlwLXJ1bGU9ImV2ZW5vZGQiIGQ9Ik04LjY0Ni4zNjhhLjc1Ljc1IDAgMCAwLTEuMjkyIDBsLTMuMjUgNS41QS43NS43NSAwIDAgMCA0Ljc1IDdoNi41YS43NS43NSAwIDAgMCAuNjQ2LTEuMTMybC0zLjI1LTUuNVpNOCAyLjIyNCA5LjkzNiA1LjVINi4wNjRMOCAyLjIyNFpNOC41IDkuMjVhLjc1Ljc1IDAgMCAxIC43NS0uNzVoNWEuNzUuNzUgMCAwIDEgLjc1Ljc1djVhLjc1Ljc1IDAgMCAxLS43NS43NWgtNWEuNzUuNzUgMCAwIDEtLjc1LS43NXYtNVpNMTAgMTB2My41aDMuNVYxMEgxMFpNMSAxMS43NWEzLjI1IDMuMjUgMCAxIDEgNi41IDAgMy4yNSAzLjI1IDAgMCAxLTYuNSAwWk00LjI1IDEwYTEuNzUgMS43NSAwIDEgMCAwIDMuNSAxLjc1IDEuNzUgMCAwIDAgMC0zLjVaIiBmaWxsLXJ1bGU9ImV2ZW5vZGQiIGZpbGw9ImN1cnJlbnRDb2xvciIvPjwvc3ZnPg==;" parent="1" vertex="1">
          <mxGeometry x="120" y="120" width="40" height="40" as="geometry" />
        </mxCell>
        <mxCell id="8PE_kOPAnqpTPC93pDLh-16" value="" style="shape=image;verticalLabelPosition=bottom;labelBackgroundColor=default;verticalAlign=top;aspect=fixed;imageAspect=0;image=data:image/svg+xml,PHN2ZyB4bWxucz0iaHR0cDovL3d3dy53My5vcmcvMjAwMC9zdmciIGNsYXNzPSIiIGFyaWEtaGlkZGVuPSJ0cnVlIiB2aWV3Qm94PSIwIDAgMTYgMTYiIGZpbGw9Im5vbmUiIGhlaWdodD0iMWVtIiB3aWR0aD0iMWVtIj48cGF0aCBjbGlwLXJ1bGU9ImV2ZW5vZGQiIGQ9Ik0zLjM5NCA1LjU4NmE0Ljc1MiA0Ljc1MiAwIDAgMSA5LjM1MS45NDYgMy43NSAzLjc1IDAgMCAxLS42NjggNy40NjRBLjc1Ny43NTcgMCAwIDEgMTIgMTRINGEuNzUuNzUgMCAwIDEtLjE3OS0uMDIxIDQuMjUgNC4yNSAwIDAgMS0uNDI3LTguMzkzWm0uNzIgNi45MTRoNy43NjJhLjc0NS43NDUgMCAwIDEgLjE4Ni0uMDA4QTIuMjUgMi4yNSAwIDEgMCAxMi4yNSA4SDEyYS43NS43NSAwIDAgMS0uNzUtLjc1di0uNWEzLjI1IDMuMjUgMCAwIDAtNi40NzYtLjQwMi43NS43NSAwIDAgMS0uNjk3LjY1NyAyLjc1IDIuNzUgMCAwIDAtLjAyNCA1LjQ4OC43NC43NCAwIDAgMSAuMDYyLjAwN1oiIGZpbGwtcnVsZT0iZXZlbm9kZCIgZmlsbD0iY3VycmVudENvbG9yIi8+PC9zdmc+;" parent="1" vertex="1">
          <mxGeometry x="360" y="120" width="40" height="40" as="geometry" />
        </mxCell>
        <mxCell id="8PE_kOPAnqpTPC93pDLh-18" value="" style="shape=image;verticalLabelPosition=bottom;labelBackgroundColor=default;verticalAlign=top;aspect=fixed;imageAspect=0;image=data:image/svg+xml,PHN2ZyB4bWxucz0iaHR0cDovL3d3dy53My5vcmcvMjAwMC9zdmciIGNsYXNzPSIiIGFyaWEtaGlkZGVuPSJ0cnVlIiB2aWV3Qm94PSIwIDAgMTYgMTYiIGZpbGw9Im5vbmUiIGhlaWdodD0iMWVtIiB3aWR0aD0iMWVtIj48cGF0aCBjbGlwLXJ1bGU9ImV2ZW5vZGQiIGQ9Ik01Ljc1IDFhLjc1Ljc1IDAgMCAwLS43NS43NXY2LjA4OWMwIC4zOC0uMTczLjczOS0uNDcuOTc2bC0yLjY3OCAyLjE0M0EyLjI3IDIuMjcgMCAwIDAgMy4yNyAxNWg5LjQ2YTIuMjcgMi4yNyAwIDAgMCAxLjQxOC00LjA0MkwxMS40NyA4LjgxNUExLjI1IDEuMjUgMCAwIDEgMTEgNy44MzlWMS43NWEuNzUuNzUgMCAwIDAtLjc1LS43NWgtNC41Wm0uNzUgNi44MzlWMi41aDN2NS4zMzljMCAuNjA2LjIgMS4xODguNTU5IDEuNjYxSDUuOTQyQTIuNzUgMi43NSAwIDAgMCA2LjUgNy44MzlaTTQuMiAxMSAyLjc5IDEyLjEzYS43Ny43NyAwIDAgMCAuNDggMS4zN2g5LjQ2MWEuNzcuNzcgMCAwIDAgLjQ4MS0xLjM3TDExLjggMTFINC4yMDFaIiBmaWxsLXJ1bGU9ImV2ZW5vZGQiIGZpbGw9ImN1cnJlbnRDb2xvciIvPjwvc3ZnPg==;" parent="1" vertex="1">
          <mxGeometry x="480" y="120" width="40" height="40" as="geometry" />
        </mxCell>
        <mxCell id="8PE_kOPAnqpTPC93pDLh-19" value="" style="shape=image;verticalLabelPosition=bottom;labelBackgroundColor=default;verticalAlign=top;aspect=fixed;imageAspect=0;image=data:image/svg+xml,PHN2ZyB4bWxucz0iaHR0cDovL3d3dy53My5vcmcvMjAwMC9zdmciIGNsYXNzPSIiIGFyaWEtaGlkZGVuPSJ0cnVlIiB2aWV3Qm94PSIwIDAgMTYgMTYiIGZpbGw9Im5vbmUiIGhlaWdodD0iMWVtIiB3aWR0aD0iMWVtIj48cGF0aCBkPSJNMTMuNSAyLjVIN1YxaDcuMjVhLjc1Ljc1IDAgMCAxIC43NS43NVY5aC0xLjVWMi41WiIgZmlsbD0iY3VycmVudENvbG9yIi8+PHBhdGggY2xpcC1ydWxlPSJldmVub2RkIiBkPSJNMSA3Ljc1QS43NS43NSAwIDAgMSAxLjc1IDdoNi41YS43NS43NSAwIDAgMSAuNzUuNzV2Ni41YS43NS43NSAwIDAgMS0uNzUuNzVoLTYuNWEuNzUuNzUgMCAwIDEtLjc1LS43NXYtNi41Wm0xLjUuNzV2NWg1di01aC01WiIgZmlsbC1ydWxlPSJldmVub2RkIiBmaWxsPSJjdXJyZW50Q29sb3IiLz48cGF0aCBkPSJNNCA1LjMyaDYuNVYxMkgxMlY0LjU3YS43NS43NSAwIDAgMC0uNzUtLjc1SDR2MS41WiIgZmlsbD0iY3VycmVudENvbG9yIi8+PC9zdmc+;" parent="1" vertex="1">
          <mxGeometry x="240" y="39.5" width="40.5" height="40.5" as="geometry" />
        </mxCell>
        <mxCell id="8PE_kOPAnqpTPC93pDLh-20" value="" style="shape=image;verticalLabelPosition=bottom;labelBackgroundColor=default;verticalAlign=top;aspect=fixed;imageAspect=0;image=data:image/svg+xml,PHN2ZyB4bWxucz0iaHR0cDovL3d3dy53My5vcmcvMjAwMC9zdmciIGNsYXNzPSIiIGFyaWEtaGlkZGVuPSJ0cnVlIiB2aWV3Qm94PSIwIDAgMTYgMTYiIGZpbGw9Im5vbmUiIGhlaWdodD0iMWVtIiB3aWR0aD0iMWVtIj48cGF0aCBjbGlwLXJ1bGU9ImV2ZW5vZGQiIGQ9Ik0wIDQuNzVhMi43NSAyLjc1IDAgMCAxIDUuMTQ1LTEuMzUzbDQuMzcyLS45NWEyLjc1IDIuNzUgMCAxIDEgMy44MzUgMi44MjNsLjI4MiAyLjI1N2EyLjc1IDIuNzUgMCAxIDEtMi41MTcgNC40NmwtMi42MiAxLjE0NS4wMDMuMTE4YTIuNzUgMi43NSAwIDEgMS00LjQxNS0yLjE5TDMuMDEzIDcuNDg5QTIuNzUgMi43NSAwIDAgMSAwIDQuNzVaTTIuNzUgMy41YTEuMjUgMS4yNSAwIDEgMCAwIDIuNSAxLjI1IDEuMjUgMCAwIDAgMC0yLjVabTIuNzE1IDEuNjg4Yy4wMTgtLjExLjAyOS0uMjIuMDMzLS4zMzNsNC4yNjYtLjkyOGEyLjc1MyAyLjc1MyAwIDAgMCAyLjEwMiAxLjU0NmwuMjgyIDIuMjU3Yy0uMzc3LjE2NS0uNzEuNDEyLS45NzYuNzE5TDUuNDY1IDUuMTg4Wk00LjgyOCA2LjU1YTIuNzY3IDIuNzY3IDAgMCAxLS40MTMuMzg4bDEuMDcyIDMuNTczYTIuNzQ3IDIuNzQ3IDAgMCAxIDIuNTM3IDEuMTlsMi41LTEuMDkzYTIuNzkyIDIuNzkyIDAgMCAxIC4wMS0uNzk3bC01LjcwNi0zLjI2Wk0xMiAxMC4yNWExLjI1IDEuMjUgMCAxIDEgMi41IDAgMS4yNSAxLjI1IDAgMCAxLTIuNSAwWk01Ljc1IDEyYTEuMjUgMS4yNSAwIDEgMCAwIDIuNSAxLjI1IDEuMjUgMCAwIDAgMC0yLjVaTTExIDIuNzVhMS4yNSAxLjI1IDAgMSAxIDIuNSAwIDEuMjUgMS4yNSAwIDAgMS0yLjUgMFoiIGZpbGwtcnVsZT0iZXZlbm9kZCIgZmlsbD0iY3VycmVudENvbG9yIi8+PC9zdmc+;" parent="1" vertex="1">
          <mxGeometry x="600" y="120" width="40" height="40" as="geometry" />
        </mxCell>
        <mxCell id="8PE_kOPAnqpTPC93pDLh-21" value="" style="shape=image;verticalLabelPosition=bottom;labelBackgroundColor=default;verticalAlign=top;aspect=fixed;imageAspect=0;image=data:image/svg+xml,PHN2ZyB4bWxucz0iaHR0cDovL3d3dy53My5vcmcvMjAwMC9zdmciIGNsYXNzPSIiIGFyaWEtaGlkZGVuPSJ0cnVlIiB2aWV3Qm94PSIwIDAgMTYgMTYiIGZpbGw9Im5vbmUiIGhlaWdodD0iMWVtIiB3aWR0aD0iMWVtIj48cGF0aCBkPSJNMy4zOTQgNS41ODZhNC43NTIgNC43NTIgMCAwIDEgOS4zNTEuOTQ2QTMuNzU0IDMuNzU0IDAgMCAxIDE1Ljc4NyA5SDE0LjEyYTIuMjQ4IDIuMjQ4IDAgMCAwLTEuODcxLTFIMTJhLjc1Ljc1IDAgMCAxLS43NS0uNzV2LS41YTMuMjUgMy4yNSAwIDAgMC02LjQ3Ni0uNDAyLjc1Ljc1IDAgMCAxLS42OTcuNjU3QTIuNzUgMi43NSAwIDAgMCA0IDEyLjQ5VjE0YS43NS43NSAwIDAgMS0uMTc5LS4wMjEgNC4yNSA0LjI1IDAgMCAxLS40MjctOC4zOTNaIiBmaWxsPSJjdXJyZW50Q29sb3IiLz48cGF0aCBjbGlwLXJ1bGU9ImV2ZW5vZGQiIGQ9Ik04IDdhMi4yNSAyLjI1IDAgMCAxIDIuMDMgMy4yMmwuNS41YTIuMjUgMi4yNSAwIDEgMS0xLjA2IDEuMDZsLS41LS41QTIuMjUgMi4yNSAwIDEgMSA4IDdabS43NSAyLjI1YS43NS43NSAwIDEgMC0xLjUgMCAuNzUuNzUgMCAwIDAgMS41IDBabTMuNSAzLjVhLjc1Ljc1IDAgMSAwLTEuNSAwIC43NS43NSAwIDAgMCAxLjUgMFoiIGZpbGwtcnVsZT0iZXZlbm9kZCIgZmlsbD0iY3VycmVudENvbG9yIi8+PC9zdmc+;" parent="1" vertex="1">
          <mxGeometry x="720" y="120" width="40" height="40" as="geometry" />
        </mxCell>
        <mxCell id="8PE_kOPAnqpTPC93pDLh-22" value="" style="shape=image;verticalLabelPosition=bottom;labelBackgroundColor=default;verticalAlign=top;aspect=fixed;imageAspect=0;image=data:image/svg+xml,PHN2ZyB4bWxucz0iaHR0cDovL3d3dy53My5vcmcvMjAwMC9zdmciIGNsYXNzPSIiIGFyaWEtaGlkZGVuPSJ0cnVlIiB2aWV3Qm94PSIwIDAgMTYgMTYiIGZpbGw9Im5vbmUiIGhlaWdodD0iMWVtIiB3aWR0aD0iMWVtIj48cGF0aCBjbGlwLXJ1bGU9ImV2ZW5vZGQiIGQ9Ik0zLjc1IDRhMS4yNSAxLjI1IDAgMSAwIDAtMi41IDEuMjUgMS4yNSAwIDAgMCAwIDIuNVptMi42NDYtLjVhMi43NTEgMi43NTEgMCAxIDEgMC0xLjVoNS4yMjlhMy4zNzUgMy4zNzUgMCAwIDEgLjExOCA2Ljc0OEw4LjQzNiAxMS4xMWEuNzUuNzUgMCAwIDEtLjg3MiAwbC0zLjMtMi4zNTdhMS44NzUgMS44NzUgMCAwIDAgLjExMSAzLjc0N2g1LjIyOWEyLjc1MSAyLjc1MSAwIDEgMSAwIDEuNUg0LjM3NWEzLjM3NSAzLjM3NSAwIDAgMS0uMTE4LTYuNzQ4TDcuNTY0IDQuODlhLjc1Ljc1IDAgMCAxIC44NzIgMGwzLjMgMi4zNTdhMS44NzUgMS44NzUgMCAwIDAtLjExMS0zLjc0N0g2LjM5NlptNy4xMDQgOS43NWExLjI1IDEuMjUgMCAxIDEtMi41IDAgMS4yNSAxLjI1IDAgMCAxIDIuNSAwWk04IDYuNDIyIDUuNzkgOCA4IDkuNTc4IDEwLjIxIDggOCA2LjQyMloiIGZpbGwtcnVsZT0iZXZlbm9kZCIgZmlsbD0iY3VycmVudENvbG9yIi8+PC9zdmc+;" parent="1" vertex="1">
          <mxGeometry x="240.5" y="120" width="40" height="40" as="geometry" />
        </mxCell>
        <mxCell id="5GRpfhWky4gS_6uR7PB4-7" value="" style="shape=image;verticalLabelPosition=bottom;labelBackgroundColor=default;verticalAlign=top;aspect=fixed;imageAspect=0;image=data:image/png,iVBORw0KGgoAAAANSUhEUgAAAGAAAABgCAYAAADimHc4AAAACXBIWXMAAAsTAAALEwEAmpwYAAAJJUlEQVR4nO1d6Y8URRRvVLxvYadqdmHV8EW8wFvEI1HjbaL+GyYi3vpBUaIoaGKMUaJGEEUkKt4aiYp4JBqPD6iJX0SJC7vMqx5YBJ1+5ZZ5PeNybL+e7pnunr5eUslktmdf1/tVvap6V1lWCJphzEHCNoNV5cypAl5WNtwtA+XMIdmQjKwoqR/MQEXpOwToLySglkqbsmleBoBagF4vlL59AEx/x4Kfvs0cIwAXCYW7SoHrjgadAGwIhU8O1s3RoYQva86ZQuGfpeB1JLNdAG6q1huzAwm/WsPrhcKdpfB1pKqWZFq18Tp/4dcbs0vh69jWOFLnouaczev8AGpHKBwSoL8SSq8tm94tA1cmOBREHXmuCRLwMZ+V/V+p8MWKapwScBkpLPXZjVOlwmVNmbEgLJqw1RQK//b+AY4KhVf1rEcZpYqN10qFOzhVNK1mquMP056VG/lC4dU97UnWQWBmglD6tvEHBegvGaRe6GkPckBS4XJvNaTXuw8MbjQHcyfcUud3T/124zRGu+iZxhxoVermeGb0/xkB/5IsdxZs9pSxbQatqnLOZ6bI16X0oiGSpZeMSfYWWfKYRWJtRPwLT0LptZ4AAF6WCQBmGHNQpYaXSIULhNJrpMJfBKAtAR3X4EWfFf7c+tsCYTsXR24WLiIA1XpjtgR8VgDWQx/7mwA9U603ZvW6H5kDoJ92DqDfl4BjYQXvsdsYk6DfpRNqr/qTGQAGm1vixyUgdi34iUA4EnBxL1RTJgAYGDEzBOgfIxf8xH5937fNnJhk31IPgKw5Z0qFI3ELf4/1AfrAOS+p/qUaAFFzzpIKtwdQIXRa/0yCnlcB59zKFtNnGTOZGn2m7wToW5vPBPFd43a5tXFGoQEYGDEzJODWNoL6SypcWN1ujgv6f+lZ+k175xIOV+rmhEICQAuuaKPzBeArU7Ya2SkPMvkKwJVtZsN3cS/MqQTA3e0oXt3sZa7tklxzu49aEoCPRsUrEwA09/nMVpMEBXhD1DwF4I0sCIBORTVOjppnagGQoD9gR6OKbuRP4Kv0nT583y4EAC3zwhin862YSQCuYmbBWL/dOD33AEjApd78cBf5pq2YyV2Yud0R4NO5BsAN7mUNa7jQSoiEwoeZGahcL1VeAWialD1HHobZ53dLYtRMZRdk27kwtwCQrZ5ZBD+LmlfbdwH9ufcs0PfnFgCh9FveM0DPi5pXgHeZz/T7zdwCQJ4sL14VcM61EibOFy5B/5RbAMgK6clr1Ey1Eqa+YVNhFuJangFoePGaGcPOI8iOjAHgn/wCwMSfzkwTAAp35RYAqXBL2lWQVLi5cItwX4Leqf+JshoLtwhLpV/31rv6Vith8okIfy23AAjQ9zGjbl3UvAK8yxee72LruwtpipCjZoqVAlOEsJ2LcguAZcz+fPQDJmeMA1zEvMMwvWNRzdE790rbiYkoe51NPs+7OZqIXH8+DpmVVsxEiywj/H8FmJNyD0Drhd72VgGa+N4eF1+p9F0+fNfExTd1AFDqkxurqTxHoiYHetQ8BeBNbMIcYKNQTnn3pQAf4UZjU0XhA1HxkqBv8Y+Ww4esGCmVAAxsMocI0D/wQnFH5qpuSr7Qb1mdv7t9R0FiVtEAcF/MNoPtQhNpd0Q+3DD2InqWZlj7Ujs4UlVmWry9TDEARBVwzgmUAeMGbOnPKW6InClkTCMrKjX6TN/R31xXY4DgXMqgYQtnFAmA8fpEjLMmjkZOl8D1e4oAAJG0zXSp9DfxC1//UCZo+JqIcTQ+AHDUzc1NmFI/A6r1xiwB+qOkVJAE/WFcYYiZAmB6szDgc361deIDwY3CXhq6oF5eAKAaRCJAham4W7NKGF5RHACaJumF4XKAcZhsNVS/tFrDSynnlw5ZdJhzG5h++o7+5tY4bWbMD4eYDVQR7EHLmP1yDYCbB6z06rCjtL8Dfd1KAgmV6E2RewRoLgE4FsyRVNiuM32t3wvLjxbajlQS6PVTR8zhuQKgssUcxvpg1V4n3Q0+z9wZlJ8EfY8PmBvanpRBr5ND5tB8AGDM/gL0O22E/5tUzgVkG+Ki51rPPeaX0dgqdbCEH93YcA98tjNXAm5so47ejGpN6CkAvuUwVVO9kHoaf17hE+3AIqeN61kbModSI/8CLb5NIH1/u+R/PsTTL1etKQN8ONMAUMVF/4UQl1vGHLDnb2gRpNo/voLspIH+aYLZ2ZjJUuFLPoCNCYVXZhKAVrY6X/8BcKllzCQ2g56ps9ZJo/MGa/8xZpJ7GOQHyfDANnNs5gBwq8fyo/HDfUc+47zf2P3Ix9/aOtuNmSyU/tgHwOetLAFAsZ686sFf9tT5fkTBWlRsqeORD/qdoLlnx9jmKKHwV1YVdeE7SBwAt2KJd0d0J9kwFRuvIddhCOF/20nFXzdrhouY60IeiQJAWYY+6mBxp53Yo64QJfp9QlXIW+7KnfSZviNHfrclaPxqWJC5PP0AKP0Go3pGojzcxEV0aPTxU69ONQBTR4zgyyDrO6yMkLT13cwMxk6SSRIDwI2/8VwMsRa1fSVOOq5mjqCseW8Q9M1pBmCd9//Cp6yMkQR8hlFDn6YSABo1bLih7cy1MkYVJpeB7ElhZ3MiAJBXiRn9Q3E5OmIlY/bjkgpdwaUOAND3JpVzlRRxOW0UZZ06AATgq1G8bJqI8ysIwJdTCIB3jXwJeLmVUZKcWgX9ZRpnwCbvl40n6yQJcg2C3oPq9zQuwp7Vb+lwZmWUpmw1klFB9RQuwt5lKOOOvY+TWlEcXjPAyZRTvugkfAEoL/Hp7SU+PtdYDcX/asUg32us3Lo5jAWzl9d+5IUoqs/3IjciPmgKl/W6A1knCbiibYESv8s86ULKnvYgw0S3k/tc5jk/WP0EhTtKEDoUPn+d7cS6GHwFkfHw7eUUcdzBuxRP5wOu8L3Q2SvijjJFOHPCPjNic3mluZ54nbsb+e1tvt5nMP9OITBsrlbzzpZ2IJRNdiADUvN0aZHvFKraeF37y2/KJkPLAP+i+KZAeoxia4Kpo7LJICMf8I/Qd1qS35MCndrXWyib5FUOBY0t6ioTs3njRPAaDIVvMF7TYn7kJdjo6EwZJhSiR5a8suFuGVCWv22mhy3D/B+4k74qhISiIwAAAABJRU5ErkJggg==;" parent="1" vertex="1">
          <mxGeometry x="720.5" y="244" width="40" height="40" as="geometry" />
        </mxCell>
        <mxCell id="5GRpfhWky4gS_6uR7PB4-8" value="" style="shape=image;verticalLabelPosition=bottom;labelBackgroundColor=default;verticalAlign=top;aspect=fixed;imageAspect=0;image=data:image/png,iVBORw0KGgoAAAANSUhEUgAAAGAAAABgCAYAAADimHc4AAAACXBIWXMAAAsTAAALEwEAmpwYAAAJOUlEQVR4nO1daYwdRxEeznBDYnunanZtA/IfbhOOcIMUI64ECRC/kfix3lf91oltcgA/NoHIMUlAQggFBAhMIIQIcnEYEUEchyCBQviREIk/SbBs45DgCCcxvFedbVTzntcbe2pm3nsz8+Yqqf/szm5119dd3V1Xe94I5BY3neEINvY7wbu4G2xpW7AiA5GJyEZkNIpMUwh9ds6Sf5E1cBcbtNagaxuqMghlRLDfGvic2zo3O77gOxvOZILdTHC8FTiONemYoMcGvu4u2PiKkYTf7+Bb2MDBVvCYyWpnAwd6i8GbUwmfTfBxNvBUK3zMVNWKTLkTnB8rfEGpFT7mtseJOu934G26zk+hdpjgkDVwtyW4vW1wUgYG7h7IJlkdRe4JbPAqXej4NBv8fm/Bf33KbaSx1DMzb2DCH4jMYibx7tOOmmzgv8qx6hh34SNTG1FFiY1/Hht8QlNFzqwPVj6WM6s68wk+OtWRVB0EbSUQ7Fz50BL8QdFX35vqCGpAbHCPAsD+8AP3mY0v0G64rc6fnHqd2Tcqqt26pdc+33Nb/Vcqs/9gBvxb8sJVcDhKxmI78vomeKeyRP7YSi8bEllGyVhk74klTwHg9oz4N55seE+I0DLdYEslAHCLm85g43+ACS+3BDezwQfYwFE22B8avI4y4d/C3xFe3u/A+zM3CzcRgF5oGsFvMcHjI1/7B6Bc26Ng87THUTkAeoOTw6/Y4PKogo84bSxbwl/IDXVa46kMAE6OxIRfZUKeVPARQPSZ8OppqKZKAOBobpM18NesBR8xrr+4zsyrixxb6QHohw4gfCR34Z8YOMFj/YWZdxQ1vlID0DfwVib8TwoVYi3hHdbghX3yz3EL/oyb954XtgV/Rn5mCbbLN2l818KzZ/DsRgPgaG4TE/4rQVBPMuEVzgRrUv9fE6yRv0lyLjHhEdf1X9VIAGTDtQk6nwl+7ObX4tg8zPqADVyfsBruyXtjLiUActqxsepmlbl2QhJze5xaYoKvZMWrEgDIOV87arJBywY/kTVP7sAnNRDkiNoj/3VeUwCwhL9WVQJlN/NP49vFi2P43toIAIbmhWVN53s5ExPcoKyC5V539k21B4AJv60I/7j4pr2cabgxR56O2OA3aw1AaNVUDGtMeIVXEDHBLmUS/Dv0UtUVADEpK8LnUc75k5JbhHXahtzv4nvrC4DY8yN54R1ewWQN3qmMe6m2AFgDtyinkAuz5pWiLzuUcd9UWwDEkxW57Mk/xyuYVF+4wfvrCwDBY1G83CKs8womt23Gjz4JwaN1BqAXCcBS9iePNCcy5ST0v/oCoMSfunIBcLzGAOA/y6+C8HDzNuGF4rxTJ0iyGhu3CVvCnym8tmfNK7EvWkS4wZ/WFwADX1Rm3b6seaXoy13R48ZLm2mKmMe1XhlMEQTvqy0A7tPec7ToBy7WGLdb6cMR6WNtAYg1Rxt46hlpOzmRZK9ryee1N0cLietPdcgYuN7LmWSTVWb/064Dr6k9AMMO3apsxk5OJ7nxNXiJypfg5tz4lg0ASX0SR7iNVgNWHOhZ82QDn9IS5sRE0iinvBAbuFKbjaKi2OBlWfGyBi+IDUsx+OWseFUGALd97oWW4F5dFYUz84ZJSr6EG66i81e1eyRIzGsaAEKOYGNiaKIUuSDYNYq9aHDOhyuTSu3Ikdh1gvX5jrLEAAj1u/7b02TADFXInRI3JM4UMaaJFTVs22b80MFCsFO+SRWca+CoWjijSQCshKcrzpo8mjhdUtfvaQIAQm4bbrCEf8odAIJ72wQNhfpSDNDgsfxmPh4Lc3MLptKvgB4Fmy3Bb4pSQdbg3rzCECsFgBsUBvxOXG2dHFeDFbvUyAX16gKA1CDiFBWm8gcCDrLBDzUGgNAkHaYPpc8BFjOx2GqkfilTcK7k/MolSy5zYds6NzuoVBWcG9Y4HWTMHxnh/0tFsC+5Je/ZtQYgTEsivHHUWdobQ1+HSSAjJ3rDLQJoLQFwi2e9LCz2N56q+OXIgza4dyxeBPsdrXtJrQBwO/0Xqz5Yc0IXh7fX+9Rvunhx6gEb/HwMr/tS3JT3uXl8US0AEJ1vDdyWoIMf7Hfx3QPbUHT03BCkq+IyGofVv67R+UBPLnx9wvewwYcSVsJNWe0JUwUgrhymHaoXUU+rvv9aEljitBH7vcxSaeJfGGzQ8rvYVXbNM1RiXK7aALBdlQZAKi7GbYRscI9b8p67+m9kEwxr/4yjv+Pb/aeanSXLng3+MKZ/y0zw4UoCEGarx9R/CC9BnvcsNYNeqbM2TpP7hmb/kT7IZTCmn0fc9rmzKgeAVI+NEcreU2e+4rx/aHLh44NJznZZCZbgtzEAfterEgAS66lHPuADq3V+HEmwlhRbGh8AuC1t7pmbP/PlTPB3TRVN4jsoHIBhVZOogdhxsmG4439MXIcjCP/P41T8FUupekSdSB4FAiBZhjHq4OpxB3HScSOF+/B3UoU8dFcO2oHBz/CySUvQxNWwEHN56QGwBn+uzP5Hsrzc5EVyaVT91IQ3lhoAR+tAX8L+RV5FyBJeqqxgHieZpDAAJP4mevbDo1nbV/Ik99k1L5WseWUVdMsMwD4FgG94FSMmvFbZC35fSgDCWaOEG4rtxasYsZrLAL1RV3MhAIhXSenwobwcHXmS9FlLKgwFVzYALOEXisq5KorUnDaDl5RvBRD8JIvOlok0vwIb+FEJV0B0jXw2+EGvosSKWpUnX0q4B8CBqP+TV9ZJESQGQWVSPVxCFRRd/VYuZ15Fyc2vReVg8XgZAYgsQ5l37H3+xWUjV0C/Uk75ppONA6B9xGfKj/ioz1gRHCqgb42g2GesBg/kKA+5TfHZj7qQRPXFPuQmpAVNiV932gOoOjHhdYkFSmIf8zT+eVMdQYUpfJ1cDb2HHWnrJzzRgjA6DZ6GV56zjaqLoVUQObkScI9EHI/Rl8bpfCa8LuFB59Mj7iRTRDMnnLIiDrdPmkP0k+aK+foU+T0sITDR6FGwWd5sSfonbcOxZCBqXh4til1C3AnOT3r8pm04hvDxSYlvSqfHDJ6dRh21DdPO/H+M/Kal+D0l0Cmp3kLbMKnOxe6JMjHluDRKDYamNz5R08LAjsxLsA0KY+CGMKO9G2xpW7AiA5GJyGbUMsz/B3spIpsUtahJAAAAAElFTkSuQmCC;" parent="1" vertex="1">
          <mxGeometry x="120" y="240" width="44.5" height="44.5" as="geometry" />
        </mxCell>
        <mxCell id="5GRpfhWky4gS_6uR7PB4-9" value="" style="shape=image;verticalLabelPosition=bottom;labelBackgroundColor=default;verticalAlign=top;aspect=fixed;imageAspect=0;image=data:image/png,iVBORw0KGgoAAAANSUhEUgAAAGAAAABgCAYAAADimHc4AAAACXBIWXMAAAsTAAALEwEAmpwYAAAJWklEQVR4nO1d+49cVR2/PAQFBR88LLRzzmw3GCsqUBHxnSBBeZgI/waJUCig/lBEApWHZtPZ73eGYngoDzfKQ3kYiC5Cd+d7hrGYWEnkh4KmrUWwRGSrbbc75nvvdLG793vuvTP33rmvb3KSyezd+d7z/ZzzPed8X8dxItD4KxPH6pmGqnUmP1/vwNeqBosyYJmwbFhGUWQaLHS6a6UmWK8MvKANzGuDvaqhRQYwrww+rwmvXTmLpw8s+NoL8CFFuFEb3FsJHAcadIpgnyKcUC/9+IPRhE+wVhvYUQkeY5ntivBvqgNnhxK+bsM3NcFcJXyMV9USzNU7zcuswmeUKuFjkmvc3npn8lxR54dUOzs14YwifLZquCgDlokrmzDqyG9NUAZvk6cPHtQE94x14MyQy0hpaWy29UlFeK8rMxmEjcu3mgb+4/uwgbdVB74xsh7llOoGLlUG/y2polVbNp22+DDvWaWRr9p48Uh7knMQpJmgDFyz+KAm2CIg9ZOR9qAApAzc5w8APu89MH3Pe6UTbqXzh6d6e/JT/oMb5tdsmzrGUW3UwgM7YuBfkeNqmF2+Mp5pKEeZ5vnCwWG2kl48xLL0V0PN8x225AlbpWdj4l96UnxO8JExyz4XAIy/MnGsauNXlYHva4OPaoMva4N7FMF+NnjxZ23gz/w395nO5FdiNwuXEQDVgbOVgaYmfGuAY/8eTYDKNM4aeT/yBkDd3TnAk5pgYQDBL13LFhThr/mEOqr+5AYAxVtigjuVwQNDC35Zf2C/MnD7KFRTLgBYPdsY14QvxS345Q3+UOvAWJp9yzwANYK1yuDryQv/kFrCNxXB59LqX6YBGDPNzyiD/woxcue1gWlFcJVut84bm4FT1nZb7+HGn/k7RXg1PxPGd808a7Otc0oNwOrZxrgi/Id9tMI7muDm08ymj4T9XX6W/yfIuaQM7K7RXfVSAuAtuGjX+YQP1LqtFYPyYJOvNvBgwGzoJr0wZxIA3u1oi7o5zFw7NC82t8tqSRn4oVMmAHifL281geNqvhU3T9VpXi6BwFvUVabxibh5ZhYATfiUZTRekyDf6yyL8uOlAKAfeeF/wiV8IAmeh/EneFhY7Bc04aeLD4DBljAK97Jv2kmY3IVZ2h0RTBYaADe4VzKsEdzspETawC3C+vNP10tVVADYpCzo3wNR9vnD0vjWiZOlBblO8KXiAuDZ8/1G3nTcvALfheD3wkzcUGQAHvPnBVfFzSv4XZrrBAAeKSwAfU/W8k63W+c5KZPsC8dtxQWA8E0/XuNbJ052UqZ6e/Opwmx8o7AA9P23y3itSWDnEWpH5t/v/xYWACn+dE2GAODzSHEBIPx71lWQJthVukVYpeidOkRuVmPpFmGDvxB4XR03r8B3ESLCFcHPCwuAMvg9gddzcfMKfhdOu/V5FwM3lNIUcUa3dZKTAVOENs0vFxYAZ2rqKDH6gdIzxvXzn/1G/25+x3KaownmDkvbSYg4e11MPi+6OZqJXX9yyCE86CRMvMgKu5+Dqj358cID4L6Qwcf9AUAWxLVJ8dUGrhf5Gnw0Kb6ZA4BTn9gRrv1nwTw70OPmWWvDFWLCHMG+UjnlmTThrfIsgAVl8MbYeLXx29awFMIfOAlSJgFYOXvn+zThVotK4JH58DAlX/h/RZ3/butykJhTNgCY9ExDhQhNnGMfbhR7kbvP92aYtdQOb4lXdyZXJdvLDAPAVH8RPxsuAwbm2Y3IcUPsTGFjGltRufFn/s79m+tqDFVYao9YOKNMACzWJxKcNUk0drqErt9TBgCYxrqtmiIwiQNAuLVK0LCYiJWBtxMb+Vx4hHNzU6bMzwBlGmcpwt+kpYI0wdNJhSHmCoCaVxhws622TnLNjcJuRS6oVxQAuAaRDlFhKgUgdmgDF5UHgKmpo/rpQwthhcRmYjdDnmB9zTQv4JxfPmTxYc5reDp/x3/jZ/oZ87vDqyQ8qAhvcnobjiw0AHziVAanIo9Siq6v3WTviIneHLnHgBYSgHGaOKFf2G4QVfFEVH7uQjsALy6ktGa68f5CAXDqH+8/XvLB6nd18bwi/JNlFlwXocPfEQXs8rCflNlHvaLbOq4YALAbkuBXAcLfXnsRv+DZhvyj5/qj8zZbRmM/8/IOWbCwjw98Y+3WF7WBV+1qDx6Ja00YKQDWcpjGUy+sng49rw38KAgsdtqw/Z5HKTf2L3iLL2y3CxXvWKISnwrgdUuuAeCKi7aFUBm4z5necPQyM7VX+yey/g4Q/ralZmfOslcG77fMggVlml/PJQCc8WKr/8CHIKfXO0Iu3CHUWRus7RTtP73eEe5hUB4ku1fObv5w7gBwq8fKI+vppSPf13kfpKdDNdge5Gz3ZgI8Y/mNu508AcCxnhbV8/L/63wbcbAWF1saVPi8+IfNPRvrtk5UBH+RVNEwvoPUAfAqlviOpPlBsmFqNHkJuw7DCx47g1T89bJmpGz6YQZkigBwlqFFn97uDF1XCDjR77dchdx1VxLMuZ/5O4M3DluCxlbDgs3lmQdAE/zSX/j4epyHm6TIPTQKfmo2o2QaAGUaHxVPmQTrnZyQMnCDAMCBQZJJUgPAi7/xXQzfiNu+kiR9bMvdH+CseV+hEV6Z3RlA+Jyg+zc5OSNNgMJa8LtMAsCjRgo3ZNuLkzNSUi4Dwb6oszkVANirJIyYnUk5OhKl3oYjpaRCV3BZA0ARfDetnKu0SMpp4yjrDM4AfCiOl80SiX4Fgp9lDwChRn69jRc6OSUtqVWCLRlUQe5pdPnvJJR1kgZ5BkG/XR2+lj0AhOq3fDhzckq1bmuF/wzAt7IIgG8ZyqRj75Mk74Ij343F/lw55ctOygZAdYnPiC/xka+xwp0pvFspyHqNlVc3R7jIbYTXfhSFOKrPepGbtXAF4b2j7kDeSRH+NLBAie0yT76QcqQ9yDF5t5NLl3k214Wqn8BXslYgDCZ88Tpbv7oYUgWRQzOBg6g44niAdymdzlesdqxJJz4Rd5wpIpkTlqC3q7rSHJdd5+5Gfgvm6yUa5TUOgRFztdw7W4JAqFpvQBns5UuLrFOo3mleFnT5TdUwugwI3uH4plB6jGNrQqmjqvXCyEAR/DXynZbs9+RAp6B6C1VD26jnoLGNQ2Vi8nYpYg2Gkjfo17Rorou9BBsfnTnDhEP02JJXNViUAcuEZRO1DPP/ALMuI5/QBk1lAAAAAElFTkSuQmCC;" parent="1" vertex="1">
          <mxGeometry x="840" y="240" width="40" height="40" as="geometry" />
        </mxCell>
        <mxCell id="5GRpfhWky4gS_6uR7PB4-13" value="" style="shape=image;verticalLabelPosition=bottom;labelBackgroundColor=default;verticalAlign=top;aspect=fixed;imageAspect=0;image=data:image/png,iVBORw0KGgoAAAANSUhEUgAAAGAAAABgCAYAAADimHc4AAAACXBIWXMAAAsTAAALEwEAmpwYAAAHqklEQVR4nO1d6Y8UVRD/KcqyqIjicgtq/GK4EQRWVBIxqICJ+G+YcOxyqB8E3QBymBhjlKgRRFCIcnlgJApymGhUPoAkfkEkgCAoEVhwYbRMOYUZh6nXr3vem+mrkko2O91d9erXXe+oV/WAEERAAwEDCWgmYGLOKLVBs9imIYxNbYzen4DZBOwioEAA5QyTDdhGOwloJaBfNYa/iYDFBJzPDY6oL10HAS8R0D2s8e8m4EhueLj62g8TMMLW+I8R0J4bH65dLdt0apDxR+TGh88+jt35aJPPt3E7RwnYQ8C2nFFqgz1iGxt3dGWfQMASw01/EfAWAYMtu5HMEgFDCFgpNtPsubjSUPOCcvEZAh6pW4sSSgRMIeCswRX1Lb241fDmP1rXliQfBO1LaCm9cLdy0Zt1bUEKiIBVim13Xr6gi2GGm/v8KomAoYpt2ead+YLblAuOVCs8pyIRcEyx8UD+cZzy41dyf05VEttSsfE4yEpepR+3VSs4pyLJPKGSjScmAgAqLoNPIGABARsJOEDA7wRclAUv/vsH+Y2vecD5snAWAaDi0shrBJyOMO1nUF4lYHgM2pEsAKg4cviYgL8jGL6c+Rkf8gy1ju1JBgBUHBIvJ+CSA8OXM7urpfVwTYkAgIA7CdjrwfDl/B0Bd9S4bfEGgIoBoBM1MP5lPkXA2Bq2L74AEDCKgD8sjMYzx+0EzCBgDAE9CbhWuKf8b6ZcYxO7ZpkjMw0AFd3OrwGGOkdAGwE9Qjy3h9wTFNk7TsDtmQRAOty9AQZaQ0CfKmT0JWBtgIxvfXfMcQVgeYC7aXEoqzXALb3gSlYiAJBx/iWD8R/3IHOaAQQeog5yLTPOAHxieBtbPMqdY5C7ORMAyPKCNsNd40Nmmfz3FNms07AsALDCECft70NmhY5ZGx29kmoAZFVTW1hrcy3PoMdCRYff/o1SpRiACYqsS2HG+Q70aDJ0yPelGYAFiqztrmVZ6PKlosuzaQZgkyJrhmtZFrrMUnTZkGYADiiyxriWZaGLFgvfn2YATimymlzLstCll6LLyTQD0KHI6uxaluWIrJIuf6YZgAsJAOB8mgH4JQEu6FgWO+GxrmVZ6NKcxU74fUXWTNeyLHTRdoSvSzMAzyiydriWZaHLLkWXeVldirjFtbyISxH3pxmATobdD22u5Rn0WGyIEXdKLQABy9Ht/0vb8UScvW5IPk/3crQoM8gQkFnrQ2aZ/HWKbE4luiv1AIhCmxWZxKMTj3LnGuRu9Cg3dgAMlkA4VWDuHKd5kPmEIWGuI1NBeVFqkeFtZBc136Gs6QHbUp53JStJADQS8L3BKCQB9H5Vdriazy/dmNXFbesSAIAoNtBia2K7xHCbQo7zF1mU2uEh8a1+WxljAJgIuMcyA6YgYcQWCabwYlpn4V7yvxa5pmCZQVO5cEaWACjZnq4Fa3zwSev6PVkAgImAAQR8XQPjc7+TJ2gYlojPeDQ+P3scakyx/wIIGE7ApzV0QVt9bUNMFABULBL1ekBtHV9ckHWp7pkEgGsQkV2FKd/MVcImZQYAWZJuC5kDfFyy4Ll+6YNSlaqfTOYa5e8h8ttsufZ4iOfzF/gcAVenGgBJS1of4S0dFjEJJGyiN+/ca0wlAAR0k8J2UdzERxHkbY0oi6veXp8qAAi4zhCDpZJOcZ/h9zkh5D1leM4+i5nyDgK6pgIA8flbAhp8kIB7ZW1I2z1HUtmxIcDFLTPc3yETvvEE/BSg0wZXfUK9AVgS5F4I6FZy/YsWYLVKZK2r8GDpfA8G3LuszCWactWYFyYaAK64GNARriLgmrJ7GqX2Dznm/eXLzpJl/7bhHtb94UQCINnqpvoPKwi4ypBBr9VZi8JHtfUf1kEmg9q9PJy9OYkArDQ0amv5m19O4mKC/LQNHwwKtsuX8JnhGW8gSQDwXk+D6zlQ6vNNxJu1pNhSVONvsc09I+BGAn40uKLRSQJgu/LMQpRsGAImS+jQ1vDfRKn4K0Gdggd71A4AzjI0GGZp1EaUBG440e9zqULeLnxY/je/2hI0ATUsmpMAwAfK8064nNz4Ipk0anHq9bEGgIDehk94NhJCBMwzbCJuijMA0w0xWKfrKz6JgBska75SW56MMwA7lGe9jIQRFWuOVmrLF7EEQN4abbvheCSMSM9l6Aj7NdcKgEmGWaiXQIdPYp0NSYUT4wjA07XKuaoVGXLa5sYRgHddKBsnMsQV3okjAFqN/IeQUCLdre6OIwCHled4yTqpBcmCYKU2HYojAFr1295IKBHQR2nT6TgCoJWh9Lr33idJiLNSmy4mbldElokCAMgP8anzIT7aMVZHfSuWFQo6xqrBsIJZt2M/0kK8q894kJtcpG2aWlnvBiSdCFgdWKAk4DDPKXVtQYJJTifXtt7Psq2fwEey5iBEM/5Z67oYhgoil78E3kQ1NKwiGfX5qwOSTq7ccceZIoblhFLmHj0/0hxXHOm+x7B8XcqHeAuMKVfrnMVDckYkG7CbHxX0CU21OPwmZ4S2Ab/Yk2392EhLd5QzrGzwc+gzLTnuKRudguot5AzVBu0yuOle7YkTYWowZJ0LYqtZzkuwSWGMAZLRzquoOeM/G7BN2DahyjD/A4d0mvtLfhZVAAAAAElFTkSuQmCC;" parent="1" vertex="1">
          <mxGeometry x="360" y="240" width="40" height="40" as="geometry" />
        </mxCell>
        <mxCell id="5GRpfhWky4gS_6uR7PB4-16" value="" style="shape=image;verticalLabelPosition=bottom;labelBackgroundColor=default;verticalAlign=top;aspect=fixed;imageAspect=0;image=data:image/png,iVBORw0KGgoAAAANSUhEUgAAAGAAAABgCAYAAADimHc4AAAACXBIWXMAAAsTAAALEwEAmpwYAAAJKUlEQVR4nO1d/49dRRW/IGBFRAvdfWfeLl0x/QUVBAGxiF8SSwQEEyT8C/xgrOx7M293iz+sfEmtgCaGGGjQSMXWaqQFBGokWKCFBFPrD2gTfuFL05Yt5UuAsvjuGTrkzH3dbHfvuV/e3nvf/XaSSTbvzb6ZOZ+ZMzPn2zhODFq7ynxSghlrN93LVRPX1AXneEA8Id4Qj5wkaWLEjMqG7ijQu5RArYQ2ddEBPEAtQT+rQKvWqBnpm/FTK81yBbhBAc7WDNd9TToJ2FWAv755zHwuFvOlcC9WgAdqxutkVjvg/naze1Ek5reb+AMJ+EHNfJ2oqCWeyiZeF8L87kU183V6exzgrAT30iCZHyp2JOBBBfo5CfrJuug5Hng8wYNRxJHvnqAE3skyXeBHUuDvZaP75YjbSGWpNdw9Xwl8gHgWAMKGxUdNwA8Z5r8nAa8e2IgKSp0GXqsEvs+Jos45pjlXmc6s3MzvAF4z0JEUHARuJUjQcq6iBL2bkfe/G+gISkBS4CYGgGdthekxs4y74dYyf+mkRroX+O8FqKe/aE5zJhvm84ycOpBA+zU59oBzyH8VmDFHNd3VzBJ5vuZeMkS89J3kTXe1Y7V5/gA8mVD7lSdJ9wRfAHBNIQBYS2rwBn5HCbxVgd4uBe6TgG8rgS4pvHp//4++ozodcL+duFq4igC0STUi8D4F+E7ca38PlHtVs3vhoMdROADUSPcCKfTjSuCxuIz3OW0ck0L/jW6ogxpPYQCYHjPLpMBfSoG4dMYvAsKVAu8ahGgqBACtUbNKgv5P8oxfNK5/jw+bL2Q5ttwDIMkAJPBw2syftz+82Rp2v57Z+PIMQAfcS5TAdyOIELqt71RCj8uGe5lsmOGbHHMqFfrbfga65dWJYrvGdzui+9VKA9AisSPwjRBGHZUC75hqmrOj/i7Vpf8JNy7hjGyYcysJgN1wIVjmS8DN4yuM6LcNUvkqwC0hq2FP2htzLgGg044KEDcnqGuXSJ66nRdLEvAXTpUA8M753FGTGIXXJ92mBPwhDwK6E43ul5JuM78ACP0EPxu1TLHdCXbVgX6kEgCQeoG74UrAzU7KJAG3MqvgWGuk+5XSA6AEbvSfgThLtmknZaKNmT8d4W9KDQCdNjjFmhR4h5MRKcD1zCR4y1qpygqAp1L2ZT7GOecvldaBGeI25I5wv1laAKw+338T3Jl0W+F90c8wm/F0aQGQoB9mABh3MiYFus2Me1t5ARC4z7ethnuZkzGxtnCh/1teAADf9GtrHZghJ2P6ybBpMBvxkTID0PVrazqFk0ekE5k/AP8vMwAfFgCA2fICIPD13IsggYcqtwm3MrROHScb6Vm5TVjovzJttZyMifMIVwL/XFoAFOifMrPu6aTbitCXXf4A6KlKqiLawqxwcqCKkOB+q7QA3OiYT3DeDzJbZdwGRvzMUB9LC0CQOloCfnBC2E5KRNHrfPB5ydXRRGT6Y10OAbc4KRNtsswK/GgCzHmlB4CIzH/MBmjodJJWu1LoyYB2t6fWbt4AoNAnMoQrfzGgyYCedJsK8AY+YA67lTLKe53Cnwd7NOPPkmqrLfTNwd5yeLuTIuUSgNao+ZQCvZdnip2ZW5eS8sVuuIzMn1f2kJOYUzUAvI6ZsTDXRGtAB1wfR19Ede0KC021g4fbTXNOuqPMMQBEEw33a9EiYKwIeYb8hsiYQso00qJSsYq1prvafmdNjeHOuRRBwybOqBIAx93TOWNNKgXwSOT8PVUAgGhSmJVS6BfSZ77eWwdoMNSmxHcC30uL+fa3KTY3Y8r9ClDN7oUK9N+zEkFS6B1puSEWCoApL0nU/YG5dVIr1gt7Y+yEemUBgHIQySgZptIugAfaAr9XGQBI3Uuq53gxwDhjI+QbutNu4ncp5pcuWXSZ65UR+oy+6+U4pYj5megiyWYEu23aMSeXGgAvDlj/Je4sbfUhr700MfECvclzjwAtJQBrzzJnUmK7PkXFY7EHLfSOftqiREo/GjJnlAoA2TCfDrDBmp6YodvriwF1JiK3J/S6gN95MeymTDbqaWFOLwUA1gwJ+tEQ5r+shPsNqxtivOd69e4MimjsZf+6m5/d2KULX1u4V0iBr4SshG1J7QkDBSAoHabqiRcST/Pq/yoULNCK9Pc0S6mQfcFuvhbIwP+9+wSRGBCrZgvg+kIDQBkXgzZCKXDTtGNOWaSmptw/MeR2lEIOVwvVzhRlrwT+IQCwYwrwqkICQBEvwfkfcKPjmJO4CHouz1pfzAc8yOt/zEl0GQzo50xr1JxVOAAoe2zAbNyxcOYvJBIxYXI6WsGXw4ztdiWA/keAKPqtUyQAyNeTDUUVuG++zA8ictaiZEt9Mx/0o1FjzyaXm88qwJc4UbQU20HmAPSymvgNRPcTDSMb+H0yHcZg/r/6yfjrRc1wHnP98yNTACjKkBc9eFe/g5iXV4gC/Z6iLOQ2J79nstxPn5Ehf6kpaIJyWJC6PPcAKKEfYmb/4SQvN2kRXRo5OzWpUXINgBoywKdB1h2nIKSEnmJWMPYTTJIZAJ7/je8p4kjS+pU0qXO2+QxFzTOr4Me5BYB0KAwA9zgFI0U5R/0B+GcuAbCzhnE3JN2LUzCSXCwDYDfuas4EALIqMR0+mJahI02iPnNBhZZx+QNA35JVzFVWxMa0CT2ZOwAU4J+S6GyeiLUrAP4xdwBwOfLbAq90CkptVqzq3XlcAfv9fietqJMsyIvm8RWrr+YPAC777ZABp6A0vsIIRgS9kz8RxKShTNv3Pk3yTJy+K8AtlFG+6iSDAagf8RnoIz7cM1Z0gUq9ZxWhwGesvLw5/hrMQT77URYir77Ah9yIeKcpfGDQAyg6SYEPhiYoCXzMs4HXDnQEBSb7Ojnneg+6HTV/wvs1CP0xn3vO1jcvBp9BZM59exN5HPfRl8rJfCnwwZAHnRd73FGkCKdOWLAiDtVPmutFz7lbnnDq6wVqDHKB4WO1BB4N/5G6qH54QC9pg3tJ4BKSTbwu/PGbuqjYPMCj5N8USY6Rb000cVQXFYEHEvC12G9akt2THJ3C8y3URfGMJ6exDUuKxPRenIieg6EuaHNa0Dk/8RRsdHW2ESaU9JS0qHVZc5wHxBPiTdw0zB8DpcOnt0WsaNQAAAAASUVORK5CYII=;" parent="1" vertex="1">
          <mxGeometry x="240" y="240" width="40" height="40" as="geometry" />
        </mxCell>
        <mxCell id="5GRpfhWky4gS_6uR7PB4-17" value="" style="shape=image;verticalLabelPosition=bottom;labelBackgroundColor=default;verticalAlign=top;aspect=fixed;imageAspect=0;image=data:image/png,iVBORw0KGgoAAAANSUhEUgAAAGAAAABgCAYAAADimHc4AAAACXBIWXMAAAsTAAALEwEAmpwYAAAJJUlEQVR4nO1d648cRxHvhEcS3knsm+q9Sw6Qv2AgJJxvu/dycEgYYR5BAsR/gURi4xDgA68omCQgIYSCBYiEkBAQz/AwwoIkJkYCBfiQxBJfAli2ueCQCBMbdqriRtVzPs721Ozs7MzsvEpq6bQ3uzVdv+7q7nq1UmPQji3uogG4+UEvXLI93N41XJcBy4RlwzJSeVJ/1s3ZgHZboN8YjWQ1ua6RKAMvI6ADfaAP2zk3m1nwy1e6Sy3gHgN4qhM4ZRt0gEML+MWVefeKsYRvdLhgAI90gqd8Zjvg4UFveE064ffwPRbwZCd8ylfVskx7eF2i8BmlTvhU2BrH6nwA4aKo89OoHQN41AAdNED7u0YbZXCQZZNGHcWuCUbjrfIX8Tmr8RuDYPi6lMtIa8nODF9vNN4ZyUwEYc95W00D+B9hW3XCAL5jaj2qKQ0CfLfR+G9JFS1d4XrrD/s9qzDyDeA7p9qTmoMgzQQDtGv9QQP0sIDU16fagwaQ0XhXvBqiA/6BlXl3sXTC7XT+5GRmh1cJqp22bnUvVCZwrxRG/5Ec+HeklLIaj8UOcHDzaqkXDgQd9dtOevkQyzJOxix75a158QDsz4l/68kA7Y9dB3q4vRYA7NjiLjIBvsVo/JQB+qHVeMgAPm01hmzwWvv7cf4fP2MhXMndLNxGAAa94TVG41cM4DMZjv1PG413LPWGV0+7H7UDwEQ7h59ZjafHFXzMWea00fQTPqFOrT91AWBl3l1sNX7eaMTJBX8eEKHVeNs0VFMtALBzbosB+lP+gj+vX3/YNuNeXWbfKg+AYQeQxieLFv56A3yqPxPa0vpXZQAWIdxmNf5r5MiNTusPWE3XmyA0g8DNLCj3Am78N39mgW7gZ9L5rpnn8I2tBsCy2tH4jxGCetZqvHmx5y5P+7v8LH9ntHMJV/uBe1UrAfA2KEjW+QbwnoVNTmflwSZfA3jviNnwSNELcyUB4N2OTVA3Z5lrJyQ2tyepJQP4OdUmAHifL201jRcUvjd3noDvk0HAcDEYvjZvnpUFwGr6uTwaaVeBfG8UVRHQj1sBgI+8EE64BvAeVTBZwPuEWXC6Pzt8Q+MBsBr3CsI/xb5pVTDxwizvjvDLjQbAWzVFwxrerEoiA3iLMAj+6b1UTQWATcrCwovj7PMnpWVwm6UFua/DNzUXALbVxy+CD+TNa/S70EPCYvyJxgJggX4kAHC9KpkM0E6h3z9oLgAaD8XyCkKjSibJF241PdZcAACfiuO1DG6zKpnMjAviVRAebzIAwzheWwvYeaTZkQk7of82FgAp/nRrtQA41VgArMa/V14FaTzWukW4X6J36gz5TM/WLcKavhe/8NENqmSSIsKNxu80FgAD9PH4TtODqmTitFvhXW5qpSliQbtNqgKmiAGEb24sAB9Q7nly9AOWZozjFCHhHVb5HRsLQJI52gKePCttpyDi7HU5+bzh5mgmdv0lOGTuVQUTL7KC8J8z4F7TeACY2P0XLwRyvDspiq/R9BGJL0dWF8a3agBw6lMUq0lxCzKxAz1vngbw/WLqKOCwVU55Jgv42eSIZvxkXryMpg8lR8vhZ/LiVR8A5twlBuiPslD8yLxvkpIvfsEVdf56e4SDxFTbAGAagJsfGZoIeJJ9uOPYi/hZnmGjSu3wlnhbz11RbC8rDACTDcJ+mgwYvzZoeojjhtiZwsY0tqJy47/9Z0C7/DMpgnM5g0YsnNEmAM6Ep0vOmkIa4PHU9XvaAADTtdpdaTT9rmjh87rTJWgkmIiNxhOFCV/jCZ+bWzJVfgYs9YZXG6BflKWCjKZ9RYUh1gqA5ahI1FcTa+sUNxs4Cnvv2AX1mgIA1yAyaSpMFQ0E4JGBxre3BgA29/r0obFygHHVZ8gHtHvQw7dyzi8fsvgwt9Zm+TP/v4B2r2XTr47x+1wR7NNKuQsbDUBUGoe+O+4o7WfQ11Gy95iJ3hy5N+cuaSQA/cvcy7iwXUZV8dOxO61pXyZeQAdWNruXNAqAqwL3YskHa88+6T6a8MyNaflZTR+V+dCjo07K7KNe0O5FjQDAuyGB7h+hg5+wOryWbUNS9NwaSLcmZTSulTq4XR7dOIwOfOGy1fiXRBB8kG4+a8JUAUguh0levbB62vD8F0aBxU4btt/zKOXm/QtcYNwDmfjd28/wYZ5JuWqRDPCWWgPAFReTFkKj8a4V5Z6/8Tt+V6Px8RGgZWmPnWt25ix7q/GbCYCdtoA7agkAZ7wk13/AvUq5C6QMeqnOWpbG5w3Z/uMuiA6D4nuu2jl3We0AiKrHSiOf9p078gXnfaKeTtfwiVHOdj8TgH6ZAODXVJ0A4FhPWfXgoY06P4k4WMsXW8o88un+tLlnC5e6l1vAP0uqaBLfQekArFU1iRn5SFmyYfoBvotdh6kFr+n3WSr+eqeOsEWdRB6lAsBZhgnq4LasndhQV4gT/X7FVch9vm/UDvNn7MiftARNUg0LNpdXHgCr6fvC6H8yz8NNUcSHRslPzWaUSgOwuNmBeMoMaLeqCRlNNwmDCLMkk5QGAMffxDICPJ63faVIWrrcvZSz5gVV9MEqA/Bg/G/hl1TNyGi8QwDg15UEgEeNHG4YLquakRFyGdieNO5sLgUA9ioJo/9oUY6OYsldKCUVesFVDQCr6WNl5VyVRVJOG0dZVw8AwG/n8bJVIsmvYAC/VTkApBr5RuPbVE1pIKpVeriKM+Bw/O8Uk3VSBkUGwdhB9dcKrgHx1W/5cKZqSgubnBZU0DPVU0FCGcqiY++LpMjFGSM4jWGtnPJtJ5MEQHeJz5Qv8Um4xupoCe/WCkq8xsqXkpQsmFO89qMpxFF9iRe5JReuwDun3YG6k9V498gCJUmXefKFlFPtQY3J304uX+a5M1X9BL6StQMhm/Cl62xj62LIFUSimcBBVBxxnOFdWqjz8e6kpJPYiDvOFJHMCeeAcay70pzirnM/KJqvzzFjcAiMmKsV3dkyCoSu2QwyYDXPlxYlTiHbw+tGX37TNTu2DPBZjm9Kpcc4tiadOuqaTTfy/zb2nZbs9+RAp1H1FrpGsgyioLE9E2ViRldBpa/B0PZm/l/TYmfuJdj46MwZJr7oKVtRu7b9jAxYJiybccsw/w9FfyYkMym4mgAAAABJRU5ErkJggg==;" parent="1" vertex="1">
          <mxGeometry x="599.5" y="244" width="41" height="41" as="geometry" />
        </mxCell>
        <mxCell id="5GRpfhWky4gS_6uR7PB4-27" value="&lt;b&gt;&lt;i&gt;MLOps Architect (&lt;/i&gt;R2&lt;i&gt;)&lt;/i&gt;&lt;/b&gt;" style="text;strokeColor=none;fillColor=none;html=1;align=center;verticalAlign=middle;whiteSpace=wrap;rounded=0;" parent="1" vertex="1">
          <mxGeometry x="210" y="295" width="100" height="30" as="geometry" />
        </mxCell>
        <mxCell id="5GRpfhWky4gS_6uR7PB4-29" value="&lt;b&gt;&lt;i&gt;Principal Investigator (&lt;/i&gt;R1&lt;i&gt;)&lt;br&gt;Project Owner&lt;/i&gt;&lt;/b&gt;" style="text;strokeColor=none;fillColor=none;html=1;align=center;verticalAlign=middle;whiteSpace=wrap;rounded=0;" parent="1" vertex="1">
          <mxGeometry x="89.5" y="290" width="100" height="40" as="geometry" />
        </mxCell>
        <mxCell id="5GRpfhWky4gS_6uR7PB4-30" value="&lt;b&gt;&lt;i&gt;Data Science Analyst (&lt;/i&gt;R3&lt;i&gt;)&lt;/i&gt;&lt;/b&gt;" style="text;strokeColor=none;fillColor=none;html=1;align=center;verticalAlign=middle;whiteSpace=wrap;rounded=0;" parent="1" vertex="1">
          <mxGeometry x="330" y="290" width="100" height="30" as="geometry" />
        </mxCell>
        <mxCell id="5GRpfhWky4gS_6uR7PB4-31" value="&lt;b&gt;&lt;i&gt;Feature Analyst (&lt;/i&gt;R3&lt;i&gt;)&lt;/i&gt;&lt;/b&gt;" style="text;strokeColor=none;fillColor=none;html=1;align=center;verticalAlign=middle;whiteSpace=wrap;rounded=0;" parent="1" vertex="1">
          <mxGeometry x="450.25" y="290.5" width="100" height="30" as="geometry" />
        </mxCell>
        <mxCell id="5GRpfhWky4gS_6uR7PB4-34" value="&lt;b style=&quot;&quot;&gt;&lt;i&gt;AI/ML Engineer (&lt;/i&gt;R5, R6&lt;i&gt;)&lt;/i&gt;&lt;/b&gt;" style="text;strokeColor=none;fillColor=none;html=1;align=center;verticalAlign=middle;whiteSpace=wrap;rounded=0;" parent="1" vertex="1">
          <mxGeometry x="690.5" y="290" width="100" height="40" as="geometry" />
        </mxCell>
        <mxCell id="5GRpfhWky4gS_6uR7PB4-37" value="&lt;b style=&quot;&quot;&gt;&lt;i&gt;MLOps Engineer (&lt;/i&gt;R7&lt;i&gt;)&lt;/i&gt;&lt;/b&gt;" style="text;strokeColor=none;fillColor=none;html=1;align=center;verticalAlign=middle;whiteSpace=wrap;rounded=0;" parent="1" vertex="1">
          <mxGeometry x="810" y="285.5" width="100" height="40" as="geometry" />
        </mxCell>
        <mxCell id="5GRpfhWky4gS_6uR7PB4-43" value="Catalog" style="text;strokeColor=none;fillColor=none;html=1;align=center;verticalAlign=middle;whiteSpace=wrap;rounded=0;" parent="1" vertex="1">
          <mxGeometry x="89.5" y="160" width="100.5" height="20" as="geometry" />
        </mxCell>
        <mxCell id="5GRpfhWky4gS_6uR7PB4-44" value="Workflows" style="text;strokeColor=none;fillColor=none;html=1;align=center;verticalAlign=middle;whiteSpace=wrap;rounded=0;" parent="1" vertex="1">
          <mxGeometry x="210" y="160" width="100.5" height="20" as="geometry" />
        </mxCell>
        <mxCell id="5GRpfhWky4gS_6uR7PB4-46" value="Compute" style="text;strokeColor=none;fillColor=none;html=1;align=center;verticalAlign=middle;whiteSpace=wrap;rounded=0;" parent="1" vertex="1">
          <mxGeometry x="330" y="160" width="100.5" height="20" as="geometry" />
        </mxCell>
        <mxCell id="5GRpfhWky4gS_6uR7PB4-47" value="Experiments" style="text;strokeColor=none;fillColor=none;html=1;align=center;verticalAlign=middle;whiteSpace=wrap;rounded=0;" parent="1" vertex="1">
          <mxGeometry x="449.75" y="160" width="100.5" height="20" as="geometry" />
        </mxCell>
        <mxCell id="5GRpfhWky4gS_6uR7PB4-48" value="Models" style="text;strokeColor=none;fillColor=none;html=1;align=center;verticalAlign=middle;whiteSpace=wrap;rounded=0;" parent="1" vertex="1">
          <mxGeometry x="580" y="160" width="80" height="20" as="geometry" />
        </mxCell>
        <mxCell id="5GRpfhWky4gS_6uR7PB4-49" value="Serving" style="text;strokeColor=none;fillColor=none;html=1;align=center;verticalAlign=middle;whiteSpace=wrap;rounded=0;" parent="1" vertex="1">
          <mxGeometry x="690" y="160" width="100.5" height="20" as="geometry" />
        </mxCell>
        <mxCell id="5GRpfhWky4gS_6uR7PB4-50" value="" style="shape=image;verticalLabelPosition=bottom;labelBackgroundColor=default;verticalAlign=top;aspect=fixed;imageAspect=0;image=data:image/png,iVBORw0KGgoAAAANSUhEUgAAAGAAAABgCAYAAADimHc4AAAACXBIWXMAAAsTAAALEwEAmpwYAAAJN0lEQVR4nO1d6Y9cRxF/nOGGxPa+qrfrGJC/cJtwhBukGAVyIAH/BhKJcwIfiMFyTBKQEEIhAgQmJAQLckFsIIL1TvWsY7SEDzGR+JKEyDYbEhLhEMNMtd2o3qyXtf3qHTPvvXlXSS1Z65np7vp1VXfX1Z6Xgdzezee4Pmwa9oMPMQVbuxas8kB4IrwRHmXhaTLTH5qds8a/xhogNmitQdc1VHkQ8oigZwmudotzs+Mzns4/lw3sYoLjHcNxrEXHBAMm+Lab3/SGTMwfEr6HCQ53jMdcpJ0NPDnoB+9OxXw2wWeY4IWO+ZirqhWeMgWXxzJfUOqYj4XtcaLOh314n67zU6gdJjhiCfrWwINdg//zgKAf8iaFOorcE5jwJp3peIIJfzTo+29PuY20lgaLM+9ggz8WnsWAsOusoyYb+I/C/GNM8OmpzaimxD3/Mjb4vKaKnNkYrH5YzqzqyjdwyVRnUncQNEkguGr1g9aAUUTlh1OdQQOIDe5WAOiFH3Dzm16h3XA7nT85DXqz74xe3Gjdobe+3HMH/DcqeupwDv135IVScDSKx2I78oYm+KAiIosd9/Ih4WUUj4X3nljyoo9L8GBO/beebHhXiNIywdZaAOD2bj6Hyf8EE263Bu5hwkfZwLNMOAwNXvJvg39Z+b/twx58PHezcBsBGIhpxOD32MBzma/9I4BuHZhgy7TnUTsABnJyIHyACU9mZXzEXUZ+41dyQ53WfGoDgJMjMeE32SBPyvgIIIZs8OZpqKZaAOAW5zZbgj/nzfiIef3J0cyby5xb5QEYhg4gfKp45p+aODwzpJkPlDW/SgMwNPBeJvxXItNGt/V5S3jFsOdf6Pr+jFvyXha2vj8jf7MGrpTPpPFdS5+DBbyg1QC4xbnNbPAfCYz/NxPucAeDdal/92CwTr6T5FxiwmW34L+plQDIhmsTdD4buMMtrMex+zAbAzZwZ4I0LBW9MVcSADnt2Dh1s9ZcOyGJuT1OLTHBN/LqqxYAyDlfO2qyQcuEn827Tyb4nAaCHFEH5L/NawsA1uBeVSVQfis/ot9rY/q9rxUAjCIvom+4bOAOr2BigrsUKTg5oNl3NR4ANnibooePi2/aK5jCjVk5HbHB7zYagNCqqRjWmHCHVxKxgZ3KIvhn6KVqKgBiUlZWHmc5509KrgcbtA15aPCjDQZA7PmRm+C8VzJZwgVl3l9tLACW4N7oEwhekXdfiWMxsE2Z992NBUA8WZFi3/Mv9Eom1Rdu8FCDAYBnovpyPdjglUzuwIwfvR/B000GYBAJwKH8Tx5pTmQKAP9tLgBK/KmrEgAExxsMAP69+ioIj7ZvE6byvFOnSLIaW7cJW8JfKH1dmXdfyWNRIsIN/ry5ABj4irLq9ufdV4qxUORYCK9vpyliHtd7VTBF9OFjjQXA7fFeokU/cLnGuF3KGJZljI0FIMEc/cJpaTsFkWSva8nnjTdHC4nrL8Yhc6dXMMkmq6z+E+4AvKXxAIQDIrgvxjV4dXH94nVqvwbuKazfqgEgqU/iCLfRasCKAz3vPtnA57WEOTGRtMopL8QGbtRWo6goJrwhr74s4Rdjw1IMfj2vvmoDgFuce6UleFhXCeHKvGuSki/hhqvo/DVtSYLEvLYBIOT6sCkxNFGKXBjYmcVeNDrnw41JpXbkSOwWgo3FzrLCAAgNF/33p8mAGUXL4YLEDYkzRYxpYkUN24EZP3SwEFwln0kVnGvgWbVwRpsAWFOfKNJZU0QTp0vq+j1tAEDIEZ5vCQ8WDgDBw12ChkLDsBggHits5RMeC3NzS6bKS8DABFsswW/KUkHW4L6iwhBrBYAbFYn6flxtncKkQS58Bm/LXFCvKQBIDSJOUWGqcCAIDnMfL24NACsm6R1ZcoCZcFlsNVK/lHvBRZLzK5csucyttNmwUlUvuGilxqlkzC9n+P0TbPBrznkvbjQAYVqSwT1ZV+lgDH0dJoFkTfQmuFcAbSQA7qHzXjcq9jeGqiD8dfZJ477x+oKem9/wmkYB4H7rv1r1wZrTbrqPxHzm2tQTJvxSDJiPpLgp73dL+KpGACA63xq4P4H5jw17+OHQNqREz63o6pviMhpXqn/don8fBnLhGxJ+hAkfjwcB7s5rT5gqAHHlMO2KehH1tObz30oCS5w2Yr+XVSpN/AvhBi3/F//dW05TiXG5aiOTxc5aAyAVF+M2Qja42817L137HdkER7V/xtDf8e3QmWZnybJngz+JkbiT3INP1RKAlWx1tf5DeAly3otiMugj66yN0+S+odl/ZAxyGYwBYdktzp1XOwCkemwMU/adufIV5/3jEzPf4GNJznaRBGvgdzGq6AdenQCQWE818oHw0bU6P44kWEuKLY0PANyfNvfMLZ37ejbwV00VTeI7KB2AsKpJ9Gq042TDcN+/VFyHqRlP+MdxKv6KpVQ/ok7CjxIBkCzDGHVw87iTWFNXaLsl/L1UIR/V5A9dlk+GfyO8YdISNHE1LMRcXnkArMFfKmL8VJ6Xm6JILo0xfuo9lQbAzW8AXYT9a7yakCW8XpFgHieZpDQAJP4meuDwdN72lSLJmXWvlax5ZX/5QnUBMLhfAeA7Xs2ICW9VAPhDJQEYrZrocEOxvXg1I9ZyGcSelFGaSwFAvErKgI8U5egokmTMWlJhyLiqAWANfrmsnKuySM1pI7yuehJA8LM8Blsl0vwKTPDT6kmAUiOfCT/p1ZRYUavy5Ev1JEBuoxG/U1TWSRkkBkFlUT1RQRUUXf1WLmdeTcktrMfofQ2eq6AERJehLDr2vkhaieKIkoBhrZzybScbB0D3iM+UH/GJecbqSAljawXFPmM1KiWpPOQ2xWc/mkIS1Rf7kJuQFjQlft1pT6DuxIS3JxYoiX3Ms+dfNtUZ1JhGr5NrofewLW39hOc7EMZkvv6c7dl1MbQKIquSYHC3RByPMZbW6XwmvD3hQeezI+4kU0QzJ5whEUe7J80h+klzxXx9xmJ+QkJgotEzwRZ5syXpR7qGY/FA1Lw8WhQrQkzB5UmP33QNszNfHiPq+5em02MLeEEaddQ1TMl8+FvmNy3F7ymBTkn1FrqGcSpHgsZ2TZSJKcelLDUY2t74VE0LA9tyL8EWFsaQDJMwoz3Y2rVglQfCE+FN1jLM/wMOJlefU72OrAAAAABJRU5ErkJggg==;" parent="1" vertex="1">
          <mxGeometry x="480" y="240" width="40" height="40" as="geometry" />
        </mxCell>
        <mxCell id="5GRpfhWky4gS_6uR7PB4-51" value="&lt;b&gt;&lt;i&gt;Data Manager (&lt;/i&gt;R4&lt;i&gt;)&lt;/i&gt;&lt;/b&gt;" style="text;strokeColor=none;fillColor=none;html=1;align=center;verticalAlign=middle;whiteSpace=wrap;rounded=0;" parent="1" vertex="1">
          <mxGeometry x="570" y="290.5" width="100" height="30" as="geometry" />
        </mxCell>
      </root>
    </mxGraphModel>
  </diagram>
</mxfile>
